# xmcd
#
# Track frame offsets: 
#        150
#        15586
#        30575
#        50443
#        69883
#
# Disc length: 1159 seconds
#
# Revision: 0
# Processed by: cddbd v1.5.2PL0 Copyright (c) Steve Scherf et al.
# Submitted via: ExactAudioCopy v1.3
#
DISCID=32048505
DTITLE=Matt Maguire - Find Me Now
DYEAR=2015
DGENRE=Country
TTITLE0=Come With Me
TTITLE1=After All
TTITLE2=Whispers
TTITLE3=Goodbye
TTITLE4=Finding My Way
EXTD=
EXTT0=
EXTT1=
EXTT2=
EXTT3=
EXTT4=
PLAYORDER=
